<svg enable-background="new 0 0 691.3 176" viewBox="0 0 691.3 176" xmlns="http://www.w3.org/2000/svg"><g fill="#049"><path d="m197.6 48.3c0-3.3.5-8.6-3.2-10v-.2h13.7v.2c-3.6 1.4-3.2 6.7-3.2 10v27.3c0 3.3-.4 8.5 3.2 9.9v.2h-13.7v-.2c3.6-1.3 3.2-6.7 3.2-9.9z"/><path d="m216.9 52.5c1.6 0 3.3-.1 4.9-.9h.2v5.6c2.5-3.5 5.5-5.6 10.2-5.6 4.1 0 8.7 1.6 11 5 2 2.9 1.8 7.4 1.8 10.8v10.5c0 3.3-.4 5.9 2.7 7.7v.2h-12.1v-.2c3.2-1.8 2.8-4.5 2.8-7.7v-9.9c0-7.8-2.2-11.7-8.8-11.7s-7.7 4.4-7.7 8.7v12.8c0 3.3-.4 5.9 2.7 7.7v.2h-12v-.2c3.2-1.8 2.7-4.5 2.7-7.8v-17.2c0-3.3.4-6-2.7-7.8v-.2z"/><path d="m262.4 71.7c0 2.7-.9 10.2 6.9 10.2 1 0 2-.4 2.9-.7l-3.8 5.1c-.7.2-1.5.4-2.3.4-11.2 0-10.2-11.6-10.2-14.4v-15.1h-4.9v-2.6c6.8-1.2 8.6-6.2 8.6-13h2.9v10.8h6.8c.9 0 2 0 2.8-.4h.2v6.6h-.2c-1.2-1.5-3.3-1.4-5.2-1.4h-4.3v14.5z"/><path d="m282.4 67.9c.1 8.8 6.3 14 14.5 14 4.3 0 8.5-1.2 11.9-3.8h.2l-3.6 6.8c-3.1 1.3-6.6 1.8-10 1.8-12.3 0-20.8-7.7-20.8-17.8 0-10 7.3-17.4 18.1-17.4 9.8 0 16.6 7.1 16.3 16.4zm19-4.2c-.8-5.1-4.1-7.5-9.3-7.5-4.8 0-8.5 2.9-9.3 7.5z"/><path d="m317.8 52.5c1.7 0 3.4-.1 4.4-.9h.2v5.5c1.6-3.3 4.9-5.5 8.5-5.5l2.6.2v6.7c-.8-.9-2.1-1.2-3.3-1.2-5.5 0-7.8 2.9-7.8 10.3v10.1c0 3.3-.4 6 2.7 7.8v.2h-12.1v-.2c3.2-1.8 2.8-4.5 2.8-7.8v-17.3c0-3.3.4-5.9-2.7-7.7v-.2z"/><path d="m343.5 52.5c1.6 0 3.3-.1 4.5-.9h.2v5.7c2.5-3.9 5.4-5.7 10.2-5.7 5.1 0 8.6 2 11.3 6.3 2.8-3.9 6.2-6.3 11.6-6.3 10.3 0 12.9 5.9 12.9 15.1v11.1c0 3.1-.4 6.7 3.2 7.8v.2h-12.5v-.2c3.2-1.8 2.7-4.5 2.7-7.8v-9.3c0-7.4-2.3-12.1-8.1-12.1-6.5 0-8.3 4.1-8.3 10.9v10.5c0 3.3-.4 6 2.8 7.8v.2h-12.1v-.2c3.2-1.8 2.8-4.5 2.8-7.8v-10c0-7.6-3.8-11.4-8.2-11.4-5.5 0-8.2 3.4-8.2 10.4v11.1c0 3.3-.4 5.9 2.7 7.8v.2h-12v-.2c3.2-1.8 2.7-4.5 2.7-7.8v-17.3c0-3.3.4-5.9-2.7-7.7v-.2h4.5z"/><path d="m401.1 69.4c0-10.8 8.7-17.9 19.2-17.9 4.6 0 8.6 1.2 12.1 4.3 3.7 3.2 5.9 8 5.9 13 0 10.4-8.7 17.9-18.9 17.9-9.9 0-18.3-7-18.3-17.3m29.8.9c0-7-3.8-14-11.5-14-6.7 0-11.1 5.3-11.1 11.8 0 6.7 4 13.8 11.4 13.8 6.7 0 11.2-5.1 11.2-11.6"/><path d="m468.8 52.5c1.9 0 4.1.3 5.4-.9h.2v26.3c0 3.3-.4 6 2.8 7.7v.2h-9.3v-4.8c-2.6 4-5.4 5.6-10.4 5.6-8.5 0-12.6-4.8-12.6-15v-11.1c0-3.3.4-6-2.8-7.8v-.2h4.7c1.6 0 3.4-.1 4.4-.9h.2v18.9c0 6.7 1.9 10.8 8.2 10.8 4.8 0 8.3-3.9 8.3-9.5v-11.1c0-3.4.4-6-2.8-7.9v-.2z"/><path d="m485.3 52.5c1.6 0 3.3-.1 4.9-.9h.2v5.6c2.5-3.5 5.5-5.6 10.2-5.6 4 0 8.7 1.6 11 5 2 2.9 1.8 7.4 1.8 10.8v10.5c0 3.3-.4 5.9 2.7 7.7v.2h-12.1v-.2c3.2-1.8 2.7-4.5 2.7-7.7v-9.9c0-7.8-2.2-11.7-8.8-11.7s-7.7 4.4-7.7 8.7v12.8c0 3.3-.4 5.9 2.8 7.7v.2h-12.1v-.2c3.2-1.8 2.8-4.5 2.8-7.8v-17.2c0-3.3.4-6-2.8-7.8v-.2z"/><path d="m529.4 71.7c0 2.7-.9 10.2 6.9 10.2 1 0 2-.4 2.9-.7l-3.8 5.1c-.7.2-1.5.4-2.3.4-11.2 0-10.2-11.6-10.2-14.4v-15.1h-4.9v-2.6c6.8-1.2 8.6-6.2 8.6-13h2.9v10.8h6.8c.9 0 2 0 2.8-.4h.2v6.6h-.2c-1.2-1.5-3.3-1.4-5.2-1.4h-4.3v14.5z"/><path d="m572.1 86.7c-4.8-.3-9.6-1.7-9.6-7.5v-11.4c-2.1 1.1-4.6 1.7-6.9 2.2-3.5.8-7.4 1.6-7.4 6 0 4.5 4.1 5.9 7.9 5.9 1.7 0 3.5-.5 5.2-1l-4.3 5.4c-1.2.2-2.5.4-3.8.4-7.3 0-12.4-4.6-12.4-10.6 0-13.5 21.6-7.2 21.6-15.1 0-3.5-4.3-4.6-6.9-4.6-3.7 0-6.6 1.4-9.8 2.9l4.8-7.2 4.7-.4c7.8 0 13.8 2.2 13.8 11v10.9c0 5.7.2 7.9 6.1 8.5z"/><path d="m581.3 52.5c1.7 0 3.5-.1 4.7-1.2h.2v26.4c0 3.3-.4 6 2.8 7.8v.2h-12.1v-.2c3.2-1.8 2.7-4.5 2.7-7.8v-17.3c0-3.3.4-5.9-2.7-7.7v-.2zm1.4-4.4c-2.7 0-4.7-2.1-4.7-4.8 0-2.5 2.3-4.3 4.7-4.3 2.5 0 4.3 2.1 4.3 4.5 0 2.5-1.9 4.6-4.3 4.6"/><path d="m598.2 52.5c1.6 0 3.3-.1 4.9-.9h.2v5.6c2.5-3.5 5.5-5.6 10.2-5.6 4.1 0 8.7 1.6 11 5 2 2.9 1.8 7.4 1.8 10.8v10.5c0 3.3-.4 5.9 2.7 7.7v.2h-12.1v-.2c3.2-1.8 2.7-4.5 2.7-7.7v-9.9c0-7.7-2.2-11.7-8.7-11.7-6.6 0-7.7 4.4-7.7 8.7v12.8c0 3.3-.4 5.9 2.8 7.7v.2h-12.1v-.2c3.2-1.8 2.7-4.5 2.7-7.8v-17.2c0-3.3.4-6-2.7-7.8v-.2z"/><path d="m104.9 51.1c0-3.5 2.8-6.3 6.3-6.3s6.3 2.8 6.3 6.3-2.8 6.3-6.3 6.3c-3.5.1-6.3-2.8-6.3-6.3"/><path d="m111.2 131c.6 0 1.1-.4 1.2-1l16.6-77.9v-.1-.2c0-.8-.6-1.5-1.4-1.5-.5 0-.9.3-1.2.7l-14 20.5c-.3.4-.8.6-1.3.6h.1c-.5 0-1-.3-1.3-.6h-.1l-14-20.5c-.2-.4-.7-.7-1.2-.7-.8 0-1.4.7-1.4 1.5v.2.1l16.8 77.9c.2.6.7 1 1.2 1z"/></g><path d="m119.7 121.6c.3.2.8.1 1-.2l35.3-48.8.1-.1c.2-.5.1-1.2-.4-1.5-.3-.2-.7-.2-.9 0l-14.6 8.3h-.1c-.3.1-.7.1-1-.1h.1c-.3-.2-.5-.5-.6-.9v-.1l2.6-39.1c0-.4-.2-.7-.5-.9-.5-.3-1-.1-1.3.5v.1l-20.1 81.6c0 .6.1 1 .4 1.2z" fill="#38d"/><path d="m101.9 121.6c-.3.2-.8.1-1-.2l-35.3-48.8-.1-.1c-.3-.5-.1-1.2.4-1.5.3-.2.6-.2.9 0l14.6 8.3c.3.1.7.1 1-.1h-.1c.3-.2.5-.5.6-.9v-.1l-2.6-39.1c0-.4.2-.7.5-.9.5-.3 1-.1 1.3.5v.1l20.1 81.6c.2.6 0 1-.3 1.2z" fill="#38d"/><path d="m141.4 103c.2.3.5.3.7.2l35.2-19h.1c.3-.3.4-.8.2-1.1-.1-.2-.4-.3-.6-.3l-12.1.6c-.2 0-.5-.1-.6-.4-.2-.2-.2-.5-.1-.8l5.9-17.2c.1-.3.1-.6-.1-.8-.2-.4-.7-.4-1-.1v.1l-27.5 38.1c-.2.1-.2.4-.1.7z" fill="#8b0"/><path d="m80.2 103c-.2.3-.5.3-.7.2l-35.2-19h-.1c-.3-.3-.4-.8-.2-1.1.1-.2.4-.3.6-.3l12.1.6c.3 0 .5-.1.6-.4.2-.2.2-.5.1-.8l-5.9-17.2c-.1-.3-.1-.6.1-.8.2-.4.7-.4 1-.1v-.1l27.5 38.1c.2.3.2.6.1.9z" fill="#8b0"/><g fill="#38d"><path d="m197.6 97.7h7.7v15.4h15.2v-15.4h7.7v38.1h-7.7v-16.7h-15.2v16.7h-7.7z"/><path d="m259.8 134.2c-2.7 1.5-5.7 2.2-9.7 2.2-9.3 0-14.7-5.4-14.7-14.6 0-8.1 4.3-14.8 13.1-14.8 10.4 0 13.4 7.1 13.4 17h-19.4c.3 4.5 3.5 7.1 8 7.1 3.5 0 6.6-1.3 9.3-2.8zm-4.9-15.2c-.2-3.6-1.9-6.6-5.9-6.6-4.1 0-6.2 2.8-6.5 6.6z"/><path d="m270 109.1c2.8-1.3 6.7-2.1 9.8-2.1 8.6 0 12.1 3.5 12.1 11.8v3.6c0 2.8 0 5 .1 7 .1 2.1.2 4.1.3 6.3h-6.4c-.3-1.5-.3-3.3-.3-4.2h-.1c-1.7 3.1-5.3 4.9-8.7 4.9-5 0-9.8-3-9.8-8.3 0-4.2 2-6.7 4.8-8 2.8-1.4 6.4-1.6 9.4-1.6h4c0-4.5-2-6.1-6.3-6.1-3.1 0-6.2 1.2-8.7 3.1zm8.5 22c2.2 0 4-1 5.1-2.5 1.2-1.6 1.5-3.6 1.5-5.8h-3.2c-3.3 0-8.1.5-8.1 4.9.1 2.3 2.1 3.4 4.7 3.4"/><path d="m300.1 94.8h7.3v40.9h-7.3z"/><path d="m320.5 113h-5.4v-5.3h5.4v-5.7l7.3-2.3v8h6.5v5.3h-6.5v13.1c0 2.4.7 4.6 3.4 4.6 1.3 0 2.6-.3 3.3-.8l.2 5.8c-1.5.4-3.2.7-5.4.7-5.7 0-8.9-3.5-8.9-9.1v-14.3z"/><path d="m343.4 94.8h7.3v16.6h.1c1.9-2.7 5-4.5 8.8-4.5 6.7 0 9.5 4.7 9.5 11v17.7h-7.3v-15c0-3.4-.1-8.1-4.8-8.1-5.3 0-6.4 5.7-6.4 9.3v13.8h-7.3z"/><path d="m396.2 113.7c-1.3-.6-2.7-1-5-1-4.5 0-7.4 3.6-7.4 8.9 0 5.2 2.5 9.2 7.6 9.2 2.1 0 4.4-.8 5.6-1.3l.3 6.1c-2.1.6-4.3.9-7.3.9-9.2 0-13.9-6.3-13.9-14.8 0-8.1 4.8-14.6 13.6-14.6 3 0 5.1.3 7.1.9z"/><path d="m406.4 109.1c2.8-1.3 6.7-2.1 9.8-2.1 8.6 0 12.1 3.5 12.1 11.8v3.6c0 2.8.1 5 .1 7 .1 2.1.2 4.1.3 6.3h-6.4c-.3-1.5-.3-3.3-.3-4.2h-.1c-1.7 3.1-5.3 4.9-8.7 4.9-5 0-9.8-3-9.8-8.3 0-4.2 2-6.7 4.8-8 2.8-1.4 6.4-1.6 9.4-1.6h4c0-4.5-2-6.1-6.3-6.1-3.1 0-6.2 1.2-8.7 3.1zm8.5 22c2.2 0 4-1 5.1-2.5 1.2-1.6 1.5-3.6 1.5-5.8h-3.2c-3.3 0-8.1.5-8.1 4.9.1 2.3 2.1 3.4 4.7 3.4"/><path d="m437.5 107.6h6.5v6.4h.1c.3-2.6 3.3-7 7.7-7 .7 0 1.5 0 2.2.2v7.4c-.6-.4-2-.6-3.3-.6-5.9 0-5.9 7.4-5.9 11.5v10.3h-7.3z"/><path d="m482 134.2c-2.7 1.5-5.7 2.2-9.7 2.2-9.3 0-14.7-5.4-14.7-14.6 0-8.1 4.3-14.8 13-14.8 10.4 0 13.4 7.1 13.4 17h-19.4c.3 4.5 3.5 7.1 8 7.1 3.5 0 6.6-1.3 9.3-2.8v5.9zm-4.9-15.2c-.2-3.6-1.9-6.6-5.9-6.6-4.1 0-6.2 2.8-6.5 6.6z"/></g><path d="m632.5 57.1c0-3.1 2.6-5.7 5.7-5.7s5.7 2.6 5.7 5.7-2.6 5.7-5.7 5.7c-3.2 0-5.7-2.6-5.7-5.7m10 0c0-2.7-1.9-4.6-4.3-4.6s-4.3 1.9-4.3 4.6 1.9 4.6 4.3 4.6 4.3-1.9 4.3-4.6m-6.5-3.2h2.4c1.5 0 2.4.5 2.4 1.9 0 1.1-.6 1.6-1.7 1.7l1.7 2.8h-1.2l-1.7-2.8h-.7v2.8h-1.2zm1.2 2.7h1.1c.7 0 1.3-.1 1.3-1 0-.8-.7-.9-1.3-.9h-1.1z" fill="#049"/></svg>