<?xml version="1.0" encoding="utf-8"?>
<!-- Generator: Adobe Illustrator 24.0.3, SVG Export Plug-In . SVG Version: 6.00 Build 0)  -->
<svg version="1.1" id="Layer_1" xmlns="http://www.w3.org/2000/svg" xmlns:xlink="http://www.w3.org/1999/xlink" x="0px" y="0px"
	 viewBox="0 0 180 70" style="enable-background:new 0 0 180 70;" xml:space="preserve">
<g>
	<g>
		<path style="fill:#005DAA;" d="M43.7,33.5c0-0.7,0.1-1.8-0.7-2.1l0,0h2.9l0,0c-0.8,0.3-0.7,1.4-0.7,2.1v5.7c0,0.7-0.1,1.8,0.7,2.1
			l0,0H43l0,0c0.8-0.3,0.7-1.4,0.7-2.1V33.5z"/>
		<path style="fill:#005DAA;" d="M47.7,34.3c0.3,0,0.7,0,1-0.2l0,0v1.2c0.5-0.7,1.1-1.2,2.1-1.2c0.8,0,1.8,0.3,2.3,1
			c0.4,0.6,0.4,1.5,0.4,2.3v2.2c0,0.7-0.1,1.2,0.6,1.6l0,0h-2.5l0,0c0.7-0.4,0.6-0.9,0.6-1.6v-2c0-1.6-0.5-2.5-1.8-2.5
			c-1.4,0-1.6,0.9-1.6,1.8v2.7c0,0.7-0.1,1.2,0.6,1.6l0,0h-2.5l0,0c0.7-0.4,0.6-0.9,0.6-1.6V36c0-0.7,0.1-1.3-0.6-1.6l0,0h0.8V34.3z
			"/>
		<path style="fill:#005DAA;" d="M57.3,38.4c0,0.6-0.2,2.1,1.4,2.1c0.2,0,0.4-0.1,0.6-0.2l-0.8,1.1c-0.1,0-0.3,0.1-0.5,0.1
			c-2.3,0-2.1-2.4-2.1-3v-3.2h-1v-0.5c1.4-0.2,1.8-1.3,1.8-2.7h0.6v2.3h1.4c0.2,0,0.4,0,0.6-0.1l0,0v1.4l0,0
			c-0.2-0.3-0.7-0.3-1.1-0.3h-0.9V38.4z"/>
		<path style="fill:#005DAA;" d="M65.4,36.7c-0.2-1.1-0.9-1.6-2-1.6c-1,0-1.8,0.6-2,1.6H65.4z M61.5,37.6c0,1.8,1.3,2.9,3,2.9
			c0.9,0,1.8-0.3,2.5-0.8l0,0l-0.8,1.4c-0.7,0.3-1.4,0.4-2.1,0.4c-2.6,0-4.3-1.6-4.3-3.7c0-2.1,1.5-3.6,3.8-3.6
			c2.1,0,3.5,1.5,3.4,3.4C67,37.6,61.5,37.6,61.5,37.6z"/>
		<path style="fill:#005DAA;" d="M68.9,34.3c0.3,0,0.7,0,0.9-0.2l0,0v1.2c0.3-0.7,1-1.2,1.8-1.2h0.5v1.4c-0.2-0.2-0.4-0.2-0.7-0.2
			c-1.2,0-1.6,0.6-1.6,2.2v2.1c0,0.7-0.1,1.3,0.6,1.6l0,0h-2.5l0,0c0.7-0.4,0.6-0.9,0.6-1.6V36c0-0.7,0.1-1.2-0.6-1.6l0,0h1V34.3z"
			/>
		<path style="fill:#005DAA;" d="M74.2,34.3c0.3,0,0.7,0,0.9-0.2l0,0v1.2c0.5-0.8,1.1-1.2,2.1-1.2c1.1,0,1.8,0.4,2.4,1.3
			c0.6-0.8,1.3-1.3,2.4-1.3c2.1,0,2.7,1.2,2.7,3.2v2.3c0,0.6-0.1,1.4,0.7,1.6l0,0h-2.6l0,0c0.7-0.4,0.6-0.9,0.6-1.6v-2
			c0-1.5-0.5-2.5-1.7-2.5c-1.4,0-1.7,0.9-1.7,2.3v2.2c0,0.7-0.1,1.3,0.6,1.6l0,0h-2.5l0,0c0.7-0.4,0.6-0.9,0.6-1.6v-2.1
			c0-1.6-0.8-2.4-1.7-2.4c-1.2,0-1.7,0.7-1.7,2.2v2.3c0,0.7-0.1,1.2,0.6,1.6l0,0h-2.5l0,0c0.7-0.4,0.6-0.9,0.6-1.6V36
			c0-0.7,0.1-1.2-0.6-1.6l0,0h0.8V34.3z"/>
		<path style="fill:#005DAA;" d="M92.5,38c0-1.5-0.8-2.9-2.4-2.9c-1.4,0-2.3,1.1-2.3,2.5s0.8,2.9,2.4,2.9
			C91.6,40.5,92.5,39.4,92.5,38 M86.3,37.9c0-2.3,1.8-3.7,4-3.7c1,0,1.8,0.3,2.5,0.9c0.8,0.7,1.2,1.7,1.2,2.7c0,2.2-1.8,3.8-3.9,3.8
			C88,41.5,86.3,40,86.3,37.9"/>
		<path style="fill:#005DAA;" d="M100.4,34.3c0.4,0,0.9,0.1,1.1-0.2l0,0v5.5c0,0.7-0.1,1.3,0.6,1.6l0,0h-2v-1
			c-0.5,0.8-1.1,1.2-2.2,1.2c-1.8,0-2.6-1-2.6-3.1V36c0-0.7,0.1-1.3-0.6-1.6l0,0h1c0.3,0,0.7,0,0.9-0.2l0,0v4c0,1.4,0.4,2.3,1.7,2.3
			c1,0,1.7-0.8,1.7-2V36c0-0.7,0.1-1.3-0.6-1.6l0,0h1V34.3z"/>
		<path style="fill:#005DAA;" d="M103.9,34.3c0.3,0,0.7,0,1-0.2l0,0v1.2c0.5-0.7,1.2-1.2,2.1-1.2c0.8,0,1.8,0.3,2.3,1
			c0.4,0.6,0.4,1.5,0.4,2.3v2.2c0,0.7-0.1,1.2,0.6,1.6l0,0h-2.5l0,0c0.7-0.4,0.6-0.9,0.6-1.6v-2c0-1.6-0.5-2.5-1.8-2.5
			c-1.4,0-1.6,0.9-1.6,1.8v2.7c0,0.7-0.1,1.2,0.6,1.6l0,0H103l0,0c0.7-0.4,0.6-0.9,0.6-1.6V36c0-0.7,0.1-1.3-0.6-1.6l0,0h0.9V34.3z"
			/>
		<path style="fill:#005DAA;" d="M113.1,38.4c0,0.6-0.2,2.1,1.4,2.1c0.2,0,0.4-0.1,0.6-0.2l-0.8,1.1c-0.1,0-0.3,0.1-0.5,0.1
			c-2.3,0-2.1-2.4-2.1-3v-3.2h-1v-0.5c1.4-0.2,1.8-1.3,1.8-2.7h0.6v2.3h1.4c0.2,0,0.4,0,0.6-0.1l0,0v1.4l0,0
			c-0.2-0.3-0.7-0.3-1.1-0.3h-0.9V38.4z"/>
		<path style="fill:#005DAA;" d="M122,41.5c-1-0.1-2-0.4-2-1.6v-2.4c-0.4,0.2-1,0.3-1.5,0.5c-0.7,0.2-1.5,0.3-1.5,1.3
			c0,0.9,0.8,1.2,1.6,1.2c0.4,0,0.7-0.1,1.1-0.2l-0.9,1.1c-0.3,0-0.5,0.1-0.8,0.1c-1.5,0-2.6-1-2.6-2.2c0-2.8,4.5-1.5,4.5-3.2
			c0-0.7-0.9-1-1.5-1c-0.8,0-1.4,0.3-2.1,0.6l1-1.5l1-0.1c1.6,0,2.9,0.5,2.9,2.3v2.3c0,1.2,0,1.6,1.3,1.8L122,41.5z"/>
		<path style="fill:#005DAA;" d="M124.3,33.4c-0.6,0-1-0.4-1-1c0-0.5,0.5-0.9,1-0.9s0.9,0.4,0.9,0.9C125.2,33,124.8,33.4,124.3,33.4
			 M124,34.3c0.3,0,0.7,0,1-0.2l0,0v5.5c0,0.7-0.1,1.3,0.6,1.6l0,0h-2.5l0,0c0.7-0.4,0.6-0.9,0.6-1.6V36c0-0.7,0.1-1.2-0.6-1.6l0,0
			h0.9V34.3z"/>
		<path style="fill:#005DAA;" d="M127.5,34.3c0.3,0,0.7,0,1-0.2l0,0v1.2c0.5-0.7,1.2-1.2,2.1-1.2c0.8,0,1.8,0.3,2.3,1
			c0.4,0.6,0.4,1.5,0.4,2.3v2.2c0,0.7-0.1,1.2,0.6,1.6l0,0h-2.5l0,0c0.7-0.4,0.6-0.9,0.6-1.6v-2c0-1.6-0.5-2.5-1.8-2.5
			c-1.4,0-1.6,0.9-1.6,1.8v2.7c0,0.7-0.1,1.2,0.6,1.6l0,0h-2.5l0,0c0.7-0.4,0.6-0.9,0.6-1.6V36c0-0.7,0.1-1.3-0.6-1.6l0,0h0.8V34.3z
			"/>
		<path style="fill:#005DAA;" d="M87.4,16.9c0-0.6,0.5-1.2,1.1-1.2s1.1,0.5,1.1,1.2c0,0.6-0.5,1.1-1.1,1.1S87.4,17.5,87.4,16.9"/>
		<path style="fill:#005DAA;" d="M88.5,31.3c0.1,0,0.2-0.1,0.2-0.2l3-14.1l0,0l0,0c0-0.1-0.1-0.3-0.2-0.3s-0.2,0.1-0.2,0.1l-2.5,3.7
			l0,0c-0.1,0.1-0.1,0.1-0.2,0.1l0,0c-0.1,0-0.2,0-0.2-0.1l0,0l-2.5-3.7c0-0.1-0.1-0.1-0.2-0.1s-0.2,0.1-0.2,0.3l0,0l0,0l3,14.1
			C88.3,31.3,88.4,31.3,88.5,31.3L88.5,31.3z"/>
		<path style="fill:#4E84C4;" d="M90.1,29.6c0.1,0,0.1,0,0.2,0l6.4-8.8l0,0l0,0c0-0.1,0-0.2-0.1-0.3c-0.1,0-0.1,0-0.2,0L93.8,22l0,0
			c-0.1,0-0.1,0-0.2,0l0,0c-0.1,0-0.1-0.1-0.1-0.2l0,0l0.5-7.1c0-0.1,0-0.1-0.1-0.2c-0.1-0.1-0.2,0-0.2,0.1l0,0l0,0L90,29.4
			C90,29.5,90,29.6,90.1,29.6L90.1,29.6z"/>
		<path style="fill:#8DC640;" d="M94,26.2C94,26.2,94.1,26.3,94,26.2l6.5-3.4l0,0l0,0c0.1-0.1,0.1-0.1,0-0.2l-0.1-0.1l-2.2,0.1l0,0
			c0,0-0.1,0-0.1-0.1l0,0c0,0,0-0.1,0-0.2l0,0l1.1-3.1c0-0.1,0-0.1,0-0.1c0-0.1-0.1-0.1-0.2,0l0,0l0,0L94,26
			C94,26.1,94,26.2,94,26.2L94,26.2z"/>
		<path style="fill:#4E84C4;" d="M86.8,29.6c-0.1,0-0.1,0-0.2,0l-6.4-8.8l0,0l0,0c0-0.1,0-0.2,0.1-0.3c0.1,0,0.1,0,0.2,0l2.7,1.5
			l0,0c0.1,0,0.1,0,0.2,0l0,0c0.1,0,0.1-0.1,0.1-0.2l0,0L83,14.7c0-0.1,0-0.1,0.1-0.2c0.1-0.1,0.2,0,0.2,0.1l0,0l0,0l3.6,14.8
			C86.9,29.5,86.9,29.6,86.8,29.6L86.8,29.6z"/>
		<path style="fill:#8DC640;" d="M82.9,26.2C82.9,26.2,82.8,26.3,82.9,26.2l-6.5-3.4l0,0l0,0c-0.1-0.1-0.1-0.1,0-0.2l0.1-0.1
			l2.2,0.1l0,0c0,0,0.1,0,0.1-0.1l0,0c0,0,0-0.1,0-0.2l0,0l-1.1-3.1c0-0.1,0-0.1,0-0.1c0-0.1,0.1-0.1,0.2,0l0,0l0,0l5,6.9
			C82.9,26.1,82.9,26.2,82.9,26.2L82.9,26.2z"/>
		<g>
			<path style="fill:#005DAA;" d="M134.5,35.3c0-0.6,0.5-1.1,1.1-1.1s1.1,0.5,1.1,1.1s-0.5,1.1-1.1,1.1
				C135,36.4,134.5,35.9,134.5,35.3 M136.5,35.3c0-0.5-0.4-0.9-0.9-0.9s-0.9,0.4-0.9,0.9s0.4,0.9,0.9,0.9S136.5,35.8,136.5,35.3
				 M135.2,34.6h0.5c0.3,0,0.5,0.1,0.5,0.4c0,0.2-0.1,0.3-0.3,0.3l0.3,0.6H136l-0.3-0.6h-0.1v0.6h-0.2v-1.3H135.2z M135.4,35.2h0.2
				c0.1,0,0.3,0,0.3-0.2s-0.1-0.2-0.3-0.2h-0.2V35.2z"/>
		</g>
	</g>
	<g style="enable-background:new    ;">
		<path style="fill:#4E84C4;" d="M13.1,43.9h2.2c1.9,0,3.6,0.5,3.6,2.6c0,2-1.5,2.7-3.3,2.7h-0.7v3.2h-1.7V43.9z M14.8,47.9h0.6
			c0.9,0,1.6-0.3,1.6-1.3s-0.7-1.3-1.6-1.3h-0.6V47.9z"/>
		<path style="fill:#4E84C4;" d="M19.9,46.1h1.5v1.4h0c0.1-0.6,0.7-1.6,1.7-1.6c0.2,0,0.3,0,0.5,0v1.7c-0.1-0.1-0.4-0.1-0.7-0.1
			c-1.3,0-1.3,1.7-1.3,2.6v2.3h-1.6V46.1z"/>
		<path style="fill:#4E84C4;" d="M24.7,43.4h1.6V45h-1.6V43.4z M24.7,46.1h1.6v6.3h-1.6V46.1z"/>
		<path style="fill:#4E84C4;" d="M28,46.1h1.5V47h0c0.5-0.8,1.3-1,1.9-1c0.9,0,1.5,0.3,1.9,1.1c0.4-0.8,1.2-1.1,2-1.1
			c1.6,0,2,1.1,2,2.5v4h-1.6v-3.8c0-0.6,0-1.4-0.9-1.4c-1.1,0-1.2,1.3-1.2,2.1v3.1h-1.6v-3.8c0-0.6,0-1.4-0.9-1.4
			c-1.1,0-1.2,1.3-1.2,2.1v3.1H28V46.1z"/>
		<path style="fill:#4E84C4;" d="M39.2,46.5c0.6-0.3,1.5-0.5,2.2-0.5c1.9,0,2.7,0.8,2.7,2.7v0.8c0,0.6,0,1.1,0,1.6
			c0,0.5,0,0.9,0.1,1.4h-1.4c-0.1-0.3-0.1-0.7-0.1-0.9h0c-0.4,0.7-1.2,1.1-1.9,1.1c-1.1,0-2.2-0.7-2.2-1.9c0-0.9,0.5-1.5,1.1-1.8
			c0.6-0.3,1.4-0.4,2.1-0.4h0.9c0-1-0.5-1.4-1.4-1.4c-0.7,0-1.4,0.3-1.9,0.7L39.2,46.5z M41.1,51.4c0.5,0,0.9-0.2,1.1-0.6
			c0.3-0.4,0.3-0.8,0.3-1.3h-0.7c-0.7,0-1.8,0.1-1.8,1.1C40.1,51.2,40.5,51.4,41.1,51.4z"/>
		<path style="fill:#4E84C4;" d="M45.7,46.1h1.5v1.4h0C47.3,47,48,46,48.9,46c0.2,0,0.3,0,0.5,0v1.7c-0.1-0.1-0.4-0.1-0.7-0.1
			c-1.3,0-1.3,1.7-1.3,2.6v2.3h-1.6V46.1z"/>
		<path style="fill:#4E84C4;" d="M53.1,50.7L53.1,50.7l1.5-4.6h1.7l-2.4,6.2c-0.5,1.4-0.9,2.8-2.6,2.8c-0.4,0-0.8-0.1-1.2-0.2
			l0.1-1.2c0.2,0.1,0.4,0.1,0.8,0.1c0.7,0,1.1-0.5,1.1-1.1l-2.4-6.6h1.8L53.1,50.7z"/>
		<path style="fill:#4E84C4;" d="M67,52.3c-0.6,0.1-1.3,0.3-1.9,0.3c-2.8,0-4.7-1.4-4.7-4.3c0-2.9,1.8-4.6,4.7-4.6
			c0.6,0,1.3,0.1,1.9,0.4l-0.1,1.4c-0.6-0.4-1.2-0.5-1.8-0.5c-1.8,0-2.9,1.3-2.9,3.1c0,1.7,1.1,3,2.9,3c0.7,0,1.5-0.1,1.9-0.4
			L67,52.3z"/>
		<path style="fill:#4E84C4;" d="M68.1,43.3h1.6V47h0c0.4-0.6,1.1-1,2-1c1.5,0,2.1,1.1,2.1,2.5v4h-1.6v-3.4c0-0.8,0-1.8-1.1-1.8
			c-1.2,0-1.4,1.3-1.4,2.1v3.1h-1.6V43.3z"/>
		<path style="fill:#4E84C4;" d="M75.6,43.4h1.6V45h-1.6V43.4z M75.6,46.1h1.6v6.3h-1.6V46.1z"/>
		<path style="fill:#4E84C4;" d="M79,43.3h1.6v9.2H79V43.3z"/>
		<path style="fill:#4E84C4;" d="M86.6,51.7L86.6,51.7c-0.5,0.6-1.2,0.9-2,0.9c-1.9,0-2.6-1.6-2.6-3.3c0-1.7,0.7-3.3,2.6-3.3
			c0.8,0,1.4,0.3,1.9,0.9h0v-3.6h1.6v9.2h-1.6V51.7z M85.1,51.3c1.1,0,1.4-1.1,1.4-2c0-0.9-0.4-2-1.5-2c-1.1,0-1.4,1.2-1.4,2
			C83.7,50.1,84,51.3,85.1,51.3z"/>
		<path style="fill:#4E84C4;" d="M89.9,46.1h1.5v1.4h0c0.1-0.6,0.7-1.6,1.7-1.6c0.2,0,0.3,0,0.5,0v1.7c-0.1-0.1-0.4-0.1-0.7-0.1
			c-1.3,0-1.3,1.7-1.3,2.6v2.3h-1.6V46.1z"/>
		<path style="fill:#4E84C4;" d="M99.4,52.1c-0.6,0.3-1.3,0.5-2.2,0.5c-2.1,0-3.3-1.2-3.3-3.3c0-1.8,1-3.3,2.9-3.3
			c2.3,0,3,1.6,3,3.8h-4.4c0.1,1,0.8,1.6,1.8,1.6c0.8,0,1.5-0.3,2.1-0.6V52.1z M98.3,48.7c0-0.8-0.4-1.5-1.3-1.5s-1.4,0.6-1.5,1.5
			H98.3z"/>
		<path style="fill:#4E84C4;" d="M101.2,46.1h1.6V47h0c0.5-0.7,1.2-1,2.1-1c1.5,0,2.1,1.1,2.1,2.5v4h-1.6v-3.4c0-0.8,0-1.8-1.1-1.8
			c-1.2,0-1.4,1.3-1.4,2.1v3.1h-1.6V46.1z"/>
		<path style="fill:#4E84C4;" d="M109,43.9h1.8l-1.1,3.1h-1.4L109,43.9z"/>
		<path style="fill:#4E84C4;" d="M114.9,47.5c-0.5-0.2-0.9-0.3-1.5-0.3c-0.4,0-1,0.2-1,0.7c0,1,2.8,0.4,2.8,2.6
			c0,1.5-1.3,2.1-2.6,2.1c-0.6,0-1.3-0.1-1.9-0.3l0.1-1.3c0.5,0.3,1.1,0.4,1.6,0.4c0.4,0,1.1-0.2,1.1-0.8c0-1.2-2.8-0.4-2.8-2.7
			c0-1.4,1.2-2,2.5-2c0.8,0,1.3,0.1,1.8,0.2L114.9,47.5z"/>
		<path style="fill:#4E84C4;" d="M120.1,43.9h1.7v3.4h3.4v-3.4h1.7v8.5h-1.7v-3.7h-3.4v3.7h-1.7V43.9z"/>
		<path style="fill:#4E84C4;" d="M131.7,46c1.9,0,3.3,1.3,3.3,3.3c0,1.8-1.2,3.3-3.3,3.3c-2.1,0-3.3-1.4-3.3-3.3
			C128.4,47.3,129.8,46,131.7,46z M131.7,51.3c1.3,0,1.6-1.1,1.6-2.2c0-1-0.5-1.9-1.6-1.9c-1.1,0-1.6,0.9-1.6,1.9
			C130.1,50.2,130.4,51.3,131.7,51.3z"/>
		<path style="fill:#4E84C4;" d="M140,47.5c-0.5-0.2-0.9-0.3-1.5-0.3c-0.4,0-1,0.2-1,0.7c0,1,2.8,0.4,2.8,2.6c0,1.5-1.3,2.1-2.6,2.1
			c-0.6,0-1.3-0.1-1.9-0.3L136,51c0.5,0.3,1.1,0.4,1.6,0.4c0.4,0,1.1-0.2,1.1-0.8c0-1.2-2.8-0.4-2.8-2.7c0-1.4,1.2-2,2.5-2
			c0.8,0,1.3,0.1,1.8,0.2L140,47.5z"/>
		<path style="fill:#4E84C4;" d="M141.7,46.1h1.6V47h0c0.4-0.6,1-1,2-1c1.9,0,2.6,1.5,2.6,3.3c0,1.7-0.7,3.3-2.7,3.3
			c-0.7,0-1.3-0.2-1.8-0.9h0V55h-1.6V46.1z M143.3,49.3c0,0.9,0.4,2,1.4,2c1.1,0,1.4-1.2,1.4-2c0-0.8-0.3-2-1.4-2
			C143.7,47.3,143.3,48.4,143.3,49.3z"/>
		<path style="fill:#4E84C4;" d="M149.2,43.4h1.6V45h-1.6V43.4z M149.2,46.1h1.6v6.3h-1.6V46.1z"/>
		<path style="fill:#4E84C4;" d="M153.1,47.3h-1.2v-1.2h1.2v-1.3l1.6-0.5v1.8h1.5v1.2h-1.5v2.9c0,0.5,0.1,1,0.8,1
			c0.3,0,0.6-0.1,0.7-0.2l0,1.3c-0.3,0.1-0.7,0.1-1.2,0.1c-1.3,0-2-0.8-2-2V47.3z"/>
		<path style="fill:#4E84C4;" d="M157.6,46.5c0.6-0.3,1.5-0.5,2.2-0.5c1.9,0,2.7,0.8,2.7,2.7v0.8c0,0.6,0,1.1,0,1.6
			c0,0.5,0,0.9,0.1,1.4h-1.4c-0.1-0.3-0.1-0.7-0.1-0.9h0c-0.4,0.7-1.2,1.1-1.9,1.1c-1.1,0-2.2-0.7-2.2-1.9c0-0.9,0.5-1.5,1.1-1.8
			c0.6-0.3,1.4-0.4,2.1-0.4h0.9c0-1-0.5-1.4-1.4-1.4c-0.7,0-1.4,0.3-1.9,0.7L157.6,46.5z M159.5,51.4c0.5,0,0.9-0.2,1.1-0.6
			c0.3-0.4,0.3-0.8,0.3-1.3h-0.7c-0.7,0-1.8,0.1-1.8,1.1C158.4,51.2,158.9,51.4,159.5,51.4z"/>
		<path style="fill:#4E84C4;" d="M164.1,43.3h1.6v9.2h-1.6V43.3z"/>
	</g>
</g>
</svg>
