<?xml version="1.0" encoding="utf-8"?>
<!-- Generator: Adobe Illustrator 24.0.2, SVG Export Plug-In . SVG Version: 6.00 Build 0)  -->
<svg version="1.1" id="Layer_1" xmlns="http://www.w3.org/2000/svg" xmlns:xlink="http://www.w3.org/1999/xlink" x="0px" y="0px"
	 viewBox="0 0 180 70" style="enable-background:new 0 0 180 70;" xml:space="preserve">
<style type="text/css">
	.st0{fill:#005DAA;}
	.st1{fill:#4E84C4;}
	.st2{fill:#8DC640;}
	.st3{font-family:'Frutiger LT Std';font-weight:bold}
	.st4{font-size:12.2192px;}
</style>
<g>
	<g>
		<path class="st0" d="M43.7,33.5c0-0.7,0.1-1.8-0.7-2.1v0h2.9v0c-0.8,0.3-0.7,1.4-0.7,2.1v5.7c0,0.7-0.1,1.8,0.7,2.1v0h-2.9v0
			c0.8-0.3,0.7-1.4,0.7-2.1V33.5z"/>
		<path class="st0" d="M47.7,34.3c0.3,0,0.7,0,1-0.2h0v1.2c0.5-0.7,1.1-1.2,2.1-1.2c0.8,0,1.8,0.3,2.3,1c0.4,0.6,0.4,1.5,0.4,2.3
			v2.2c0,0.7-0.1,1.2,0.6,1.6v0h-2.5v0c0.7-0.4,0.6-0.9,0.6-1.6v-2c0-1.6-0.5-2.5-1.8-2.5c-1.4,0-1.6,0.9-1.6,1.8v2.7
			c0,0.7-0.1,1.2,0.6,1.6v0h-2.5v0c0.7-0.4,0.6-0.9,0.6-1.6V36c0-0.7,0.1-1.3-0.6-1.6v0H47.7z"/>
		<path class="st0" d="M57.3,38.4c0,0.6-0.2,2.1,1.4,2.1c0.2,0,0.4-0.1,0.6-0.2l-0.8,1.1c-0.1,0-0.3,0.1-0.5,0.1
			c-2.3,0-2.1-2.4-2.1-3v-3.2h-1v-0.5c1.4-0.2,1.8-1.3,1.8-2.7h0.6v2.3h1.4c0.2,0,0.4,0,0.6-0.1h0v1.4h0c-0.2-0.3-0.7-0.3-1.1-0.3
			h-0.9V38.4z"/>
		<path class="st0" d="M65.4,36.7c-0.2-1.1-0.9-1.6-2-1.6c-1,0-1.8,0.6-2,1.6H65.4z M61.5,37.6c0,1.8,1.3,2.9,3,2.9
			c0.9,0,1.8-0.3,2.5-0.8h0l-0.8,1.4c-0.7,0.3-1.4,0.4-2.1,0.4c-2.6,0-4.3-1.6-4.3-3.7c0-2.1,1.5-3.6,3.8-3.6c2.1,0,3.5,1.5,3.4,3.4
			H61.5z"/>
		<path class="st0" d="M68.9,34.3c0.3,0,0.7,0,0.9-0.2h0v1.2c0.3-0.7,1-1.2,1.8-1.2l0.5,0v1.4c-0.2-0.2-0.4-0.2-0.7-0.2
			c-1.2,0-1.6,0.6-1.6,2.2v2.1c0,0.7-0.1,1.3,0.6,1.6v0h-2.5v0c0.7-0.4,0.6-0.9,0.6-1.6V36c0-0.7,0.1-1.2-0.6-1.6v0H68.9z"/>
		<path class="st0" d="M74.2,34.3c0.3,0,0.7,0,0.9-0.2h0v1.2c0.5-0.8,1.1-1.2,2.1-1.2c1.1,0,1.8,0.4,2.4,1.3
			c0.6-0.8,1.3-1.3,2.4-1.3c2.1,0,2.7,1.2,2.7,3.2v2.3c0,0.6-0.1,1.4,0.7,1.6v0h-2.6v0c0.7-0.4,0.6-0.9,0.6-1.6v-2
			c0-1.5-0.5-2.5-1.7-2.5c-1.4,0-1.7,0.9-1.7,2.3v2.2c0,0.7-0.1,1.3,0.6,1.6v0h-2.5v0c0.7-0.4,0.6-0.9,0.6-1.6v-2.1
			c0-1.6-0.8-2.4-1.7-2.4c-1.2,0-1.7,0.7-1.7,2.2v2.3c0,0.7-0.1,1.2,0.6,1.6v0h-2.5v0c0.7-0.4,0.6-0.9,0.6-1.6V36
			c0-0.7,0.1-1.2-0.6-1.6v0H74.2z"/>
		<path class="st0" d="M92.5,38c0-1.5-0.8-2.9-2.4-2.9c-1.4,0-2.3,1.1-2.3,2.5c0,1.4,0.8,2.9,2.4,2.9C91.6,40.5,92.5,39.4,92.5,38
			 M86.3,37.9c0-2.3,1.8-3.7,4-3.7c1,0,1.8,0.3,2.5,0.9c0.8,0.7,1.2,1.7,1.2,2.7c0,2.2-1.8,3.8-3.9,3.8C88,41.5,86.3,40,86.3,37.9"
			/>
		<path class="st0" d="M100.4,34.3c0.4,0,0.9,0.1,1.1-0.2h0v5.5c0,0.7-0.1,1.3,0.6,1.6v0h-2v-1c-0.5,0.8-1.1,1.2-2.2,1.2
			c-1.8,0-2.6-1-2.6-3.1V36c0-0.7,0.1-1.3-0.6-1.6v0h1c0.3,0,0.7,0,0.9-0.2h0v4c0,1.4,0.4,2.3,1.7,2.3c1,0,1.7-0.8,1.7-2V36
			c0-0.7,0.1-1.3-0.6-1.6v0H100.4z"/>
		<path class="st0" d="M103.9,34.3c0.3,0,0.7,0,1-0.2h0v1.2c0.5-0.7,1.2-1.2,2.1-1.2c0.8,0,1.8,0.3,2.3,1c0.4,0.6,0.4,1.5,0.4,2.3
			v2.2c0,0.7-0.1,1.2,0.6,1.6v0h-2.5v0c0.7-0.4,0.6-0.9,0.6-1.6v-2c0-1.6-0.5-2.5-1.8-2.5c-1.4,0-1.6,0.9-1.6,1.8v2.7
			c0,0.7-0.1,1.2,0.6,1.6v0H103v0c0.7-0.4,0.6-0.9,0.6-1.6V36c0-0.7,0.1-1.3-0.6-1.6v0H103.9z"/>
		<path class="st0" d="M113.1,38.4c0,0.6-0.2,2.1,1.4,2.1c0.2,0,0.4-0.1,0.6-0.2l-0.8,1.1c-0.1,0-0.3,0.1-0.5,0.1
			c-2.3,0-2.1-2.4-2.1-3v-3.2h-1v-0.5c1.4-0.2,1.8-1.3,1.8-2.7h0.6v2.3h1.4c0.2,0,0.4,0,0.6-0.1h0v1.4h0c-0.2-0.3-0.7-0.3-1.1-0.3
			h-0.9V38.4z"/>
		<path class="st0" d="M122,41.5c-1-0.1-2-0.4-2-1.6v-2.4c-0.4,0.2-1,0.3-1.5,0.5c-0.7,0.2-1.5,0.3-1.5,1.3c0,0.9,0.8,1.2,1.6,1.2
			c0.4,0,0.7-0.1,1.1-0.2l-0.9,1.1c-0.3,0-0.5,0.1-0.8,0.1c-1.5,0-2.6-1-2.6-2.2c0-2.8,4.5-1.5,4.5-3.2c0-0.7-0.9-1-1.5-1
			c-0.8,0-1.4,0.3-2.1,0.6l1-1.5l1-0.1c1.6,0,2.9,0.5,2.9,2.3v2.3c0,1.2,0,1.6,1.3,1.8L122,41.5z"/>
		<path class="st0" d="M124.3,33.4c-0.6,0-1-0.4-1-1c0-0.5,0.5-0.9,1-0.9c0.5,0,0.9,0.4,0.9,0.9C125.2,33,124.8,33.4,124.3,33.4
			 M124,34.3c0.3,0,0.7,0,1-0.2h0v5.5c0,0.7-0.1,1.3,0.6,1.6v0h-2.5v0c0.7-0.4,0.6-0.9,0.6-1.6V36c0-0.7,0.1-1.2-0.6-1.6v0H124z"/>
		<path class="st0" d="M127.5,34.3c0.3,0,0.7,0,1-0.2h0v1.2c0.5-0.7,1.2-1.2,2.1-1.2c0.8,0,1.8,0.3,2.3,1c0.4,0.6,0.4,1.5,0.4,2.3
			v2.2c0,0.7-0.1,1.2,0.6,1.6v0h-2.5v0c0.7-0.4,0.6-0.9,0.6-1.6v-2c0-1.6-0.5-2.5-1.8-2.5c-1.4,0-1.6,0.9-1.6,1.8v2.7
			c0,0.7-0.1,1.2,0.6,1.6v0h-2.5v0c0.7-0.4,0.6-0.9,0.6-1.6V36c0-0.7,0.1-1.3-0.6-1.6v0H127.5z"/>
		<path class="st0" d="M87.4,16.9c0-0.6,0.5-1.2,1.1-1.2c0.6,0,1.1,0.5,1.1,1.2c0,0.6-0.5,1.1-1.1,1.1C87.9,18,87.4,17.5,87.4,16.9"
			/>
		<path class="st0" d="M88.5,31.3c0.1,0,0.2-0.1,0.2-0.2l3-14.1l0,0l0,0c0-0.1-0.1-0.3-0.2-0.3c-0.1,0-0.2,0.1-0.2,0.1l-2.5,3.7l0,0
			c-0.1,0.1-0.1,0.1-0.2,0.1h0c-0.1,0-0.2,0-0.2-0.1l0,0l-2.5-3.7c0-0.1-0.1-0.1-0.2-0.1c-0.1,0-0.2,0.1-0.2,0.3l0,0v0l3,14.1
			C88.3,31.3,88.4,31.3,88.5,31.3L88.5,31.3z"/>
		<path class="st1" d="M90.1,29.6c0.1,0,0.1,0,0.2,0l6.4-8.8l0,0l0,0c0-0.1,0-0.2-0.1-0.3c-0.1,0-0.1,0-0.2,0L93.8,22l0,0
			c-0.1,0-0.1,0-0.2,0l0,0c-0.1,0-0.1-0.1-0.1-0.2v0l0.5-7.1c0-0.1,0-0.1-0.1-0.2c-0.1-0.1-0.2,0-0.2,0.1l0,0v0L90,29.4
			C90,29.5,90,29.6,90.1,29.6L90.1,29.6z"/>
		<path class="st2" d="M94,26.2c0,0,0.1,0.1,0.1,0l6.4-3.4l0,0l0,0c0.1-0.1,0.1-0.1,0-0.2c0,0-0.1-0.1-0.1-0.1l-2.2,0.1l0,0
			c0,0-0.1,0-0.1-0.1l0,0c0,0,0-0.1,0-0.2l0,0l1.1-3.1c0-0.1,0-0.1,0-0.1c0-0.1-0.1-0.1-0.2,0l0,0l0,0l-5,6.9
			C94,26.1,94,26.2,94,26.2L94,26.2z"/>
		<path class="st1" d="M86.8,29.6c-0.1,0-0.1,0-0.2,0l-6.4-8.8l0,0l0,0c0-0.1,0-0.2,0.1-0.3c0.1,0,0.1,0,0.2,0l2.7,1.5l0,0
			c0.1,0,0.1,0,0.2,0l0,0c0.1,0,0.1-0.1,0.1-0.2l0,0l-0.5-7.1c0-0.1,0-0.1,0.1-0.2c0.1-0.1,0.2,0,0.2,0.1l0,0l0,0l3.6,14.8
			C86.9,29.5,86.9,29.6,86.8,29.6L86.8,29.6z"/>
		<path class="st2" d="M82.9,26.2c0,0-0.1,0.1-0.1,0l-6.4-3.4l0,0l0,0c-0.1-0.1-0.1-0.1,0-0.2c0,0,0.1-0.1,0.1-0.1l2.2,0.1l0,0
			c0,0,0.1,0,0.1-0.1l0,0c0,0,0-0.1,0-0.2l0,0l-1.1-3.1c0-0.1,0-0.1,0-0.1c0-0.1,0.1-0.1,0.2,0l0,0l0,0l5,6.9
			C82.9,26.1,82.9,26.2,82.9,26.2L82.9,26.2z"/>
		<g>
			<path class="st0" d="M134.5,35.3c0-0.6,0.5-1.1,1.1-1.1c0.6,0,1.1,0.5,1.1,1.1c0,0.6-0.5,1.1-1.1,1.1
				C135,36.4,134.5,35.9,134.5,35.3 M136.5,35.3c0-0.5-0.4-0.9-0.9-0.9c-0.5,0-0.9,0.4-0.9,0.9c0,0.5,0.4,0.9,0.9,0.9
				C136.1,36.2,136.5,35.8,136.5,35.3 M135.2,34.6h0.5c0.3,0,0.5,0.1,0.5,0.4c0,0.2-0.1,0.3-0.3,0.3l0.3,0.6h-0.2l-0.3-0.6h-0.1v0.6
				h-0.2V34.6z M135.4,35.2h0.2c0.1,0,0.3,0,0.3-0.2c0-0.2-0.1-0.2-0.3-0.2h-0.2V35.2z"/>
		</g>
	</g>
	<text transform="matrix(1 0 0 1 12.2571 52.4445)" class="st1 st3 st4">Primary Children’s Hospital</text>
</g>
</svg>
