<svg enable-background="new 0 0 180 70" viewBox="0 0 180 70" xmlns="http://www.w3.org/2000/svg"><g fill="#005daa"><path d="m43.7 33.5c0-.7.1-1.8-.7-2.1h2.9c-.8.3-.7 1.4-.7 2.1v5.7c0 .7-.1 1.8.7 2.1h-2.9c.8-.3.7-1.4.7-2.1z"/><path d="m47.7 34.3c.3 0 .7 0 1-.2v1.2c.5-.7 1.1-1.2 2.1-1.2.8 0 1.8.3 2.3 1 .4.6.4 1.5.4 2.3v2.2c0 .7-.1 1.2.6 1.6h-2.5c.7-.4.6-.9.6-1.6v-2c0-1.6-.5-2.5-1.8-2.5-1.4 0-1.6.9-1.6 1.8v2.7c0 .7-.1 1.2.6 1.6h-2.5c.7-.4.6-.9.6-1.6v-3.6c0-.7.1-1.3-.6-1.6h.8z"/><path d="m57.3 38.4c0 .6-.2 2.1 1.4 2.1.2 0 .4-.1.6-.2l-.8 1.1c-.1 0-.3.1-.5.1-2.3 0-2.1-2.4-2.1-3v-3.2h-1v-.5c1.4-.2 1.8-1.3 1.8-2.7h.6v2.3h1.4c.2 0 .4 0 .6-.1v1.4c-.2-.3-.7-.3-1.1-.3h-.9z"/><path d="m65.4 36.7c-.2-1.1-.9-1.6-2-1.6-1 0-1.8.6-2 1.6zm-3.9.9c0 1.8 1.3 2.9 3 2.9.9 0 1.8-.3 2.5-.8l-.8 1.4c-.7.3-1.4.4-2.1.4-2.6 0-4.3-1.6-4.3-3.7s1.5-3.6 3.8-3.6c2.1 0 3.5 1.5 3.4 3.4z"/><path d="m68.9 34.3c.3 0 .7 0 .9-.2v1.2c.3-.7 1-1.2 1.8-1.2h.5v1.4c-.2-.2-.4-.2-.7-.2-1.2 0-1.6.6-1.6 2.2v2.1c0 .7-.1 1.3.6 1.6h-2.5c.7-.4.6-.9.6-1.6v-3.6c0-.7.1-1.2-.6-1.6h1z"/><path d="m74.2 34.3c.3 0 .7 0 .9-.2v1.2c.5-.8 1.1-1.2 2.1-1.2 1.1 0 1.8.4 2.4 1.3.6-.8 1.3-1.3 2.4-1.3 2.1 0 2.7 1.2 2.7 3.2v2.3c0 .6-.1 1.4.7 1.6h-2.6c.7-.4.6-.9.6-1.6v-2c0-1.5-.5-2.5-1.7-2.5-1.4 0-1.7.9-1.7 2.3v2.2c0 .7-.1 1.3.6 1.6h-2.5c.7-.4.6-.9.6-1.6v-2.1c0-1.6-.8-2.4-1.7-2.4-1.2 0-1.7.7-1.7 2.2v2.3c0 .7-.1 1.2.6 1.6h-2.5c.7-.4.6-.9.6-1.6v-3.6c0-.7.1-1.2-.6-1.6h.8z"/><path d="m92.5 38c0-1.5-.8-2.9-2.4-2.9-1.4 0-2.3 1.1-2.3 2.5s.8 2.9 2.4 2.9c1.4 0 2.3-1.1 2.3-2.5m-6.2-.1c0-2.3 1.8-3.7 4-3.7 1 0 1.8.3 2.5.9.8.7 1.2 1.7 1.2 2.7 0 2.2-1.8 3.8-3.9 3.8-2.1-.1-3.8-1.6-3.8-3.7"/><path d="m100.4 34.3c.4 0 .9.1 1.1-.2v5.5c0 .7-.1 1.3.6 1.6h-2v-1c-.5.8-1.1 1.2-2.2 1.2-1.8 0-2.6-1-2.6-3.1v-2.3c0-.7.1-1.3-.6-1.6h1c.3 0 .7 0 .9-.2v4c0 1.4.4 2.3 1.7 2.3 1 0 1.7-.8 1.7-2v-2.5c0-.7.1-1.3-.6-1.6h1z"/><path d="m103.9 34.3c.3 0 .7 0 1-.2v1.2c.5-.7 1.2-1.2 2.1-1.2.8 0 1.8.3 2.3 1 .4.6.4 1.5.4 2.3v2.2c0 .7-.1 1.2.6 1.6h-2.5c.7-.4.6-.9.6-1.6v-2c0-1.6-.5-2.5-1.8-2.5-1.4 0-1.6.9-1.6 1.8v2.7c0 .7-.1 1.2.6 1.6h-2.6c.7-.4.6-.9.6-1.6v-3.6c0-.7.1-1.3-.6-1.6h.9z"/><path d="m113.1 38.4c0 .6-.2 2.1 1.4 2.1.2 0 .4-.1.6-.2l-.8 1.1c-.1 0-.3.1-.5.1-2.3 0-2.1-2.4-2.1-3v-3.2h-1v-.5c1.4-.2 1.8-1.3 1.8-2.7h.6v2.3h1.4c.2 0 .4 0 .6-.1v1.4c-.2-.3-.7-.3-1.1-.3h-.9z"/><path d="m122 41.5c-1-.1-2-.4-2-1.6v-2.4c-.4.2-1 .3-1.5.5-.7.2-1.5.3-1.5 1.3 0 .9.8 1.2 1.6 1.2.4 0 .7-.1 1.1-.2l-.9 1.1c-.3 0-.5.1-.8.1-1.5 0-2.6-1-2.6-2.2 0-2.8 4.5-1.5 4.5-3.2 0-.7-.9-1-1.5-1-.8 0-1.4.3-2.1.6l1-1.5 1-.1c1.6 0 2.9.5 2.9 2.3v2.3c0 1.2 0 1.6 1.3 1.8z"/><path d="m124.3 33.4c-.6 0-1-.4-1-1 0-.5.5-.9 1-.9s.9.4.9.9c0 .6-.4 1-.9 1m-.3.9c.3 0 .7 0 1-.2v5.5c0 .7-.1 1.3.6 1.6h-2.5c.7-.4.6-.9.6-1.6v-3.6c0-.7.1-1.2-.6-1.6h.9z"/><path d="m127.5 34.3c.3 0 .7 0 1-.2v1.2c.5-.7 1.2-1.2 2.1-1.2.8 0 1.8.3 2.3 1 .4.6.4 1.5.4 2.3v2.2c0 .7-.1 1.2.6 1.6h-2.5c.7-.4.6-.9.6-1.6v-2c0-1.6-.5-2.5-1.8-2.5-1.4 0-1.6.9-1.6 1.8v2.7c0 .7-.1 1.2.6 1.6h-2.5c.7-.4.6-.9.6-1.6v-3.6c0-.7.1-1.3-.6-1.6h.8z"/><path d="m87.4 16.9c0-.6.5-1.2 1.1-1.2s1.1.5 1.1 1.2c0 .6-.5 1.1-1.1 1.1s-1.1-.5-1.1-1.1"/><path d="m88.5 31.3c.1 0 .2-.1.2-.2l3-14.1c0-.1-.1-.3-.2-.3s-.2.1-.2.1l-2.5 3.7c-.1.1-.1.1-.2.1-.1 0-.2 0-.2-.1l-2.5-3.7c0-.1-.1-.1-.2-.1s-.2.1-.2.3l3 14.1c-.2.2-.1.2 0 .2z"/></g><path d="m90.1 29.6h.2l6.4-8.8c0-.1 0-.2-.1-.3-.1 0-.1 0-.2 0l-2.6 1.5c-.1 0-.1 0-.2 0-.1 0-.1-.1-.1-.2l.5-7.1c0-.1 0-.1-.1-.2s-.2 0-.2.1l-3.7 14.8c0 .1 0 .2.1.2z" fill="#4e84c4"/><path d="m94 26.2s.1.1 0 0l6.5-3.4c.1-.1.1-.1 0-.2l-.1-.1-2.2.1s-.1 0-.1-.1 0-.1 0-.2l1.1-3.1c0-.1 0-.1 0-.1 0-.1-.1-.1-.2 0l-5 6.9z" fill="#8dc640"/><path d="m86.8 29.6c-.1 0-.1 0-.2 0l-6.4-8.8c0-.1 0-.2.1-.3h.2l2.7 1.5h.2c.1 0 .1-.1.1-.2l-.5-7.1c0-.1 0-.1.1-.2s.2 0 .2.1l3.6 14.8c0 .1 0 .2-.1.2z" fill="#4e84c4"/><path d="m82.9 26.2s-.1.1 0 0l-6.5-3.4c-.1-.1-.1-.1 0-.2l.1-.1 2.2.1s.1 0 .1-.1 0-.1 0-.2l-1.1-3.1c0-.1 0-.1 0-.1 0-.1.1-.1.2 0l5 6.9z" fill="#8dc640"/><path d="m134.5 35.3c0-.6.5-1.1 1.1-1.1s1.1.5 1.1 1.1-.5 1.1-1.1 1.1-1.1-.5-1.1-1.1m2 0c0-.5-.4-.9-.9-.9s-.9.4-.9.9.4.9.9.9.9-.4.9-.9m-1.3-.7h.5c.3 0 .5.1.5.4 0 .2-.1.3-.3.3l.3.6h-.2l-.3-.6h-.1v.6h-.2v-1.3zm.2.6h.2c.1 0 .3 0 .3-.2s-.1-.2-.3-.2h-.2z" fill="#005daa"/><g enable-background="new" fill="#4e84c4"><path d="m13.1 43.9h2.2c1.9 0 3.6.5 3.6 2.6 0 2-1.5 2.7-3.3 2.7h-.7v3.2h-1.7v-8.5zm1.7 4h.6c.9 0 1.6-.3 1.6-1.3s-.7-1.3-1.6-1.3h-.6z"/><path d="m19.9 46.1h1.5v1.4c.1-.6.7-1.6 1.7-1.6h.5v1.7c-.1-.1-.4-.1-.7-.1-1.3 0-1.3 1.7-1.3 2.6v2.3h-1.6v-6.3z"/><path d="m24.7 43.4h1.6v1.6h-1.6zm0 2.7h1.6v6.3h-1.6z"/><path d="m28 46.1h1.5v.9c.5-.8 1.3-1 1.9-1 .9 0 1.5.3 1.9 1.1.4-.8 1.2-1.1 2-1.1 1.6 0 2 1.1 2 2.5v4h-1.6v-3.8c0-.6 0-1.4-.9-1.4-1.1 0-1.2 1.3-1.2 2.1v3.1h-1.6v-3.8c0-.6 0-1.4-.9-1.4-1.1 0-1.2 1.3-1.2 2.1v3.1h-1.9z"/><path d="m39.2 46.5c.6-.3 1.5-.5 2.2-.5 1.9 0 2.7.8 2.7 2.7v.8 1.6c0 .5 0 .9.1 1.4h-1.4c-.1-.3-.1-.7-.1-.9-.4.7-1.2 1.1-1.9 1.1-1.1 0-2.2-.7-2.2-1.9 0-.9.5-1.5 1.1-1.8s1.4-.4 2.1-.4h.9c0-1-.5-1.4-1.4-1.4-.7 0-1.4.3-1.9.7zm1.9 4.9c.5 0 .9-.2 1.1-.6.3-.4.3-.8.3-1.3h-.7c-.7 0-1.8.1-1.8 1.1.1.6.5.8 1.1.8z"/><path d="m45.7 46.1h1.5v1.4c.1-.5.8-1.5 1.7-1.5h.5v1.7c-.1-.1-.4-.1-.7-.1-1.3 0-1.3 1.7-1.3 2.6v2.3h-1.6v-6.4z"/><path d="m53.1 50.7 1.5-4.6h1.7l-2.4 6.2c-.5 1.4-.9 2.8-2.6 2.8-.4 0-.8-.1-1.2-.2l.1-1.2c.2.1.4.1.8.1.7 0 1.1-.5 1.1-1.1l-2.4-6.6h1.8z"/><path d="m67 52.3c-.6.1-1.3.3-1.9.3-2.8 0-4.7-1.4-4.7-4.3s1.8-4.6 4.7-4.6c.6 0 1.3.1 1.9.4l-.1 1.4c-.6-.4-1.2-.5-1.8-.5-1.8 0-2.9 1.3-2.9 3.1 0 1.7 1.1 3 2.9 3 .7 0 1.5-.1 1.9-.4z"/><path d="m68.1 43.3h1.6v3.7c.4-.6 1.1-1 2-1 1.5 0 2.1 1.1 2.1 2.5v4h-1.6v-3.4c0-.8 0-1.8-1.1-1.8-1.2 0-1.4 1.3-1.4 2.1v3.1h-1.6z"/><path d="m75.6 43.4h1.6v1.6h-1.6zm0 2.7h1.6v6.3h-1.6z"/><path d="m79 43.3h1.6v9.2h-1.6z"/><path d="m86.6 51.7c-.5.6-1.2.9-2 .9-1.9 0-2.6-1.6-2.6-3.3s.7-3.3 2.6-3.3c.8 0 1.4.3 1.9.9v-3.6h1.6v9.2h-1.6v-.8zm-1.5-.4c1.1 0 1.4-1.1 1.4-2s-.4-2-1.5-2-1.4 1.2-1.4 2c.1.8.4 2 1.5 2z"/><path d="m89.9 46.1h1.5v1.4c.1-.6.7-1.6 1.7-1.6h.5v1.7c-.1-.1-.4-.1-.7-.1-1.3 0-1.3 1.7-1.3 2.6v2.3h-1.6v-6.3z"/><path d="m99.4 52.1c-.6.3-1.3.5-2.2.5-2.1 0-3.3-1.2-3.3-3.3 0-1.8 1-3.3 2.9-3.3 2.3 0 3 1.6 3 3.8h-4.4c.1 1 .8 1.6 1.8 1.6.8 0 1.5-.3 2.1-.6v1.3zm-1.1-3.4c0-.8-.4-1.5-1.3-1.5s-1.4.6-1.5 1.5z"/><path d="m101.2 46.1h1.6v.9c.5-.7 1.2-1 2.1-1 1.5 0 2.1 1.1 2.1 2.5v4h-1.6v-3.4c0-.8 0-1.8-1.1-1.8-1.2 0-1.4 1.3-1.4 2.1v3.1h-1.6v-6.4z"/><path d="m109 43.9h1.8l-1.1 3.1h-1.4z"/><path d="m114.9 47.5c-.5-.2-.9-.3-1.5-.3-.4 0-1 .2-1 .7 0 1 2.8.4 2.8 2.6 0 1.5-1.3 2.1-2.6 2.1-.6 0-1.3-.1-1.9-.3l.1-1.3c.5.3 1.1.4 1.6.4.4 0 1.1-.2 1.1-.8 0-1.2-2.8-.4-2.8-2.7 0-1.4 1.2-2 2.5-2 .8 0 1.3.1 1.8.2z"/><path d="m120.1 43.9h1.7v3.4h3.4v-3.4h1.7v8.5h-1.7v-3.7h-3.4v3.7h-1.7z"/><path d="m131.7 46c1.9 0 3.3 1.3 3.3 3.3 0 1.8-1.2 3.3-3.3 3.3s-3.3-1.4-3.3-3.3c0-2 1.4-3.3 3.3-3.3zm0 5.3c1.3 0 1.6-1.1 1.6-2.2 0-1-.5-1.9-1.6-1.9s-1.6.9-1.6 1.9c0 1.1.3 2.2 1.6 2.2z"/><path d="m140 47.5c-.5-.2-.9-.3-1.5-.3-.4 0-1 .2-1 .7 0 1 2.8.4 2.8 2.6 0 1.5-1.3 2.1-2.6 2.1-.6 0-1.3-.1-1.9-.3l.2-1.3c.5.3 1.1.4 1.6.4.4 0 1.1-.2 1.1-.8 0-1.2-2.8-.4-2.8-2.7 0-1.4 1.2-2 2.5-2 .8 0 1.3.1 1.8.2z"/><path d="m141.7 46.1h1.6v.9c.4-.6 1-1 2-1 1.9 0 2.6 1.5 2.6 3.3 0 1.7-.7 3.3-2.7 3.3-.7 0-1.3-.2-1.8-.9v3.3h-1.6v-8.9zm1.6 3.2c0 .9.4 2 1.4 2 1.1 0 1.4-1.2 1.4-2s-.3-2-1.4-2c-1 0-1.4 1.1-1.4 2z"/><path d="m149.2 43.4h1.6v1.6h-1.6zm0 2.7h1.6v6.3h-1.6z"/><path d="m153.1 47.3h-1.2v-1.2h1.2v-1.3l1.6-.5v1.8h1.5v1.2h-1.5v2.9c0 .5.1 1 .8 1 .3 0 .6-.1.7-.2v1.3c-.3.1-.7.1-1.2.1-1.3 0-2-.8-2-2v-3.1z"/><path d="m157.6 46.5c.6-.3 1.5-.5 2.2-.5 1.9 0 2.7.8 2.7 2.7v.8 1.6c0 .5 0 .9.1 1.4h-1.4c-.1-.3-.1-.7-.1-.9-.4.7-1.2 1.1-1.9 1.1-1.1 0-2.2-.7-2.2-1.9 0-.9.5-1.5 1.1-1.8s1.4-.4 2.1-.4h.9c0-1-.5-1.4-1.4-1.4-.7 0-1.4.3-1.9.7zm1.9 4.9c.5 0 .9-.2 1.1-.6.3-.4.3-.8.3-1.3h-.7c-.7 0-1.8.1-1.8 1.1 0 .6.5.8 1.1.8z"/><path d="m164.1 43.3h1.6v9.2h-1.6z"/></g></svg>