<svg enable-background="new 0 0 256 256" viewBox="0 0 256 256" xmlns="http://www.w3.org/2000/svg"><path d="m255 195c0 33-27 60-60 60h-134c-33 0-60-27-60-60v-134c0-33 27-60 60-60h134c33 0 60 27 60 60z" fill="#fff"/><path d="m118.1 71.7c0-5.9 4.7-10.6 10.6-10.6s10.6 4.7 10.6 10.6-4.7 10.6-10.6 10.6c-5.9.2-10.6-4.7-10.6-10.6" fill="#174895"/><path d="m128.7 206.2c1 0 1.9-.7 2-1.7l27.9-131.1v-.2-.3c0-1.3-1-2.5-2.4-2.5-.8 0-1.5.5-2 1.2l-23.6 34.5c-.5.7-1.3 1-2.2 1h.2c-.8 0-1.7-.5-2.2-1h-.2l-23.6-34.5c-.3-.7-1.2-1.2-2-1.2-1.3 0-2.4 1.2-2.4 2.5v.3.2l28.3 131.1c.5 1.1 1.3 1.7 2.2 1.7z" fill="#174895"/><path d="m143 190.4c.5.3 1.3.2 1.7-.3l59.4-82.2.2-.2c.3-.8.2-2-.7-2.5-.5-.3-1.2-.3-1.5 0l-24.6 14h-.2c-.5.2-1.2.2-1.7-.2h.2c-.5-.3-.8-.8-1-1.5v-.2l4.4-65.8c0-.7-.3-1.2-.8-1.5-.8-.5-1.7-.2-2.2.8v.2l-33.8 137.4c-.1 1 .1 1.7.6 2z" fill="#4385c5"/><path d="m113 190.4c-.5.3-1.3.2-1.7-.3l-59.4-82.2-.2-.2c-.5-.8-.2-2 .7-2.5.5-.3 1-.3 1.5 0l24.6 14c.5.2 1.2.2 1.7-.2h-.2c.5-.3.8-.8 1-1.5v-.2l-4.4-65.8c0-.7.3-1.2.8-1.5.8-.5 1.7-.2 2.2.8v.2l33.8 137.4c.5 1 .1 1.7-.4 2z" fill="#4385c5"/><g fill="#88bc40"><path d="m179.5 159.1c.3.5.8.5 1.2.3l59.3-32h.2c.5-.5.7-1.3.3-1.9-.2-.3-.7-.5-1-.5l-20.4 1c-.3 0-.8-.2-1-.7-.3-.3-.3-.8-.2-1.3l9.9-29c.2-.5.2-1-.2-1.3-.3-.7-1.2-.7-1.7-.2v.2l-46.3 64.1c-.3.3-.3.8-.1 1.3z"/><path d="m76.5 159.1c-.3.5-.8.5-1.2.3l-59.3-32h-.2c-.5-.5-.7-1.3-.3-1.9.2-.3.7-.5 1-.5l20.4 1c.5 0 .8-.2 1-.7.3-.3.3-.8.2-1.3l-9.9-29c-.2-.5-.2-1 .2-1.3.3-.7 1.2-.7 1.7-.2v-.2l46.3 64.1c.3.7.3 1.2.1 1.7z"/></g></svg>