<?xml version="1.0" encoding="utf-8"?>
<!-- Generator: Adobe Illustrator 24.0.1, SVG Export Plug-In . SVG Version: 6.00 Build 0)  -->
<svg version="1.1" id="Layer_1" xmlns="http://www.w3.org/2000/svg" xmlns:xlink="http://www.w3.org/1999/xlink" x="0px" y="0px"
	 viewBox="0 0 37 57" style="enable-background:new 0 0 37 57;" xml:space="preserve">
<style type="text/css">
	.orangepin0{fill:#904520;}
	.orangepin1{fill:#F6921E;}
	.orangepin2{fill:#FFFFFF;}
	.orangepin3{fill:none;stroke:#FFFFFF;stroke-width:2;stroke-miterlimit:10;}
</style>
<g>
	<g>
		<polyline class="orangepin0" points="31.6,28.4 18.2,47.8 18.2,27.5 		"/>
		<circle class="orangepin1" cx="18.2" cy="18.9" r="16.5"/>
		<polyline class="orangepin1" points="4.8,28.4 18.2,47.8 18.2,27.5 		"/>
		<circle class="orangepin2" cx="18.2" cy="19" r="9.1"/>
		<g>
			<circle class="orangepin1" cx="14.7" cy="18.1" r="1.3"/>
			<circle class="orangepin1" cx="21.6" cy="18.1" r="1.3"/>
			<path class="orangepin1" d="M21.6,20.6c0,1.9-1.5,3.4-3.4,3.4s-3.4-1.5-3.4-3.4"/>
		</g>
		<ellipse class="orangepin0" cx="18.2" cy="54.2" rx="12.3" ry="1.8"/>
	</g>
	<g>
		<path class="orangepin3" d="M18.1,2.7C9,2.7,1.6,10.1,1.6,19.2c0,3.6,1.1,6.9,3.1,9.6l0,0l13.4,19.4h0.1L31,29.6
			c2.3-2.8,3.7-6.4,3.7-10.4C34.6,10.1,27.3,2.7,18.1,2.7z"/>
	</g>
</g>
</svg>
