<?xml version="1.0" encoding="utf-8"?>
<!-- Generator: Adobe Illustrator 24.0.2, SVG Export Plug-In . SVG Version: 6.00 Build 0)  -->
<svg version="1.1" id="Layer_1" xmlns="http://www.w3.org/2000/svg" xmlns:xlink="http://www.w3.org/1999/xlink" x="0px" y="0px"
	 viewBox="0 0 37 56" style="enable-background:new 0 0 37 56;" xml:space="preserve">
<g style="display:none;">
	<g style="display:inline;">
		<polyline style="fill:#BA982F;" points="31.9,27.3 18.5,46.7 18.5,26.4 		"/>
		<circle style="fill:#F2CC16;" cx="18.5" cy="17.7" r="16.5"/>
		<polyline style="fill:#F2CC16;" points="6.1,28.8 18.5,46.7 18.5,26.4 		"/>
		<circle style="fill:#FFFFFF;" cx="18.5" cy="17.8" r="9.1"/>
		<g>
			<circle style="fill:#F2CC16;" cx="15" cy="16.8" r="1.3"/>
			<circle style="fill:#F2CC16;" cx="21.9" cy="16.8" r="1.3"/>
			<path style="fill:#F2CC16;" d="M21.9,19.4c0,1.9-1.5,3.4-3.4,3.4c-1.9,0-3.4-1.5-3.4-3.4"/>
		</g>
		<ellipse cx="18.5" cy="53" rx="12.3" ry="1.8"/>
	</g>
	<g style="display:inline;">
		<path style="fill:none;stroke:#FFFFFF;stroke-width:3;stroke-miterlimit:10;" d="M18.5,47L18.5,47L4.7,27.1C3,24.5,2,21.4,2,18.1
			C2,9,9.4,1.6,18.5,1.6C27.6,1.6,35,9,35,18.1c0,3.7-1.3,7.2-3.4,10L18.5,47z"/>
	</g>
</g>
<g>
	<g>
		<polyline style="fill:#D3902E;" points="31.9,27.3 18.5,46.7 18.5,26.4 		"/>
		<circle style="fill:#F3C678;" cx="18.5" cy="17.7" r="16.5"/>
		<polyline style="fill:#F3C678;" points="6.1,28.8 18.5,46.7 18.5,26.4 		"/>
		<circle style="fill:#FFFFFF;" cx="18.5" cy="17.8" r="9.1"/>
		<g>
			<circle style="fill:#F3C678;" cx="15" cy="16.8" r="1.3"/>
			<circle style="fill:#F3C678;" cx="21.9" cy="16.8" r="1.3"/>
			<path style="fill:#F3C678;" d="M21.9,19.4c0,1.9-1.5,3.4-3.4,3.4c-1.9,0-3.4-1.5-3.4-3.4"/>
		</g>
		<ellipse cx="18.5" cy="53" rx="12.3" ry="1.8"/>
	</g>
	<g>
		<path style="fill:none;stroke:#FFFFFF;stroke-width:3;stroke-miterlimit:10;" d="M18.5,47L18.5,47L4.7,27.1C3,24.5,2,21.4,2,18.1
			C2,9,9.4,1.6,18.5,1.6C27.6,1.6,35,9,35,18.1c0,3.7-1.3,7.2-3.4,10L18.5,47z"/>
	</g>
</g>
<g style="display:none;">
	<g style="display:inline;">
		<polyline style="fill:#057D3F;" points="31.9,27.3 18.5,46.7 18.5,26.4 		"/>
		<circle style="fill:#17AA62;" cx="18.5" cy="17.7" r="16.5"/>
		<polyline style="fill:#17AA62;" points="6.1,28.8 18.5,46.7 18.5,26.4 		"/>
		<circle style="fill:#FFFFFF;" cx="18.5" cy="17.8" r="9.1"/>
		<g>
			<circle style="fill:#17AA62;" cx="15" cy="16.8" r="1.3"/>
			<circle style="fill:#17AA62;" cx="21.9" cy="16.8" r="1.3"/>
			<path style="fill:#17AA62;" d="M21.9,19.4c0,1.9-1.5,3.4-3.4,3.4c-1.9,0-3.4-1.5-3.4-3.4"/>
		</g>
		<ellipse cx="18.5" cy="53" rx="12.3" ry="1.8"/>
	</g>
	<g style="display:inline;">
		<path style="fill:none;stroke:#FFFFFF;stroke-width:3;stroke-miterlimit:10;" d="M18.5,47L18.5,47L4.7,27.1C3,24.5,2,21.4,2,18.1
			C2,9,9.4,1.6,18.5,1.6C27.6,1.6,35,9,35,18.1c0,3.7-1.3,7.2-3.4,10L18.5,47z"/>
	</g>
</g>
<g style="display:none;">
	<g style="display:inline;">
		<polyline style="fill:#A01D21;" points="31.9,27.3 18.5,46.7 18.5,26.4 		"/>
		<circle style="fill:#E54446;" cx="18.5" cy="17.7" r="16.5"/>
		<polyline style="fill:#E54446;" points="6.1,28.8 18.5,46.7 18.5,26.4 		"/>
		<circle style="fill:#FFFFFF;" cx="18.5" cy="17.8" r="9.1"/>
		<g>
			<circle style="fill:#E54446;" cx="15" cy="16.8" r="1.3"/>
			<circle style="fill:#E54446;" cx="21.9" cy="16.8" r="1.3"/>
			<path style="fill:#E54446;" d="M21.9,19.4c0,1.9-1.5,3.4-3.4,3.4c-1.9,0-3.4-1.5-3.4-3.4"/>
		</g>
		<ellipse cx="18.5" cy="53" rx="12.3" ry="1.8"/>
	</g>
	<g style="display:inline;">
		<path style="fill:none;stroke:#FFFFFF;stroke-width:3;stroke-miterlimit:10;" d="M18.5,47L18.5,47L4.7,27.1C3,24.5,2,21.4,2,18.1
			C2,9,9.4,1.6,18.5,1.6C27.6,1.6,35,9,35,18.1c0,3.7-1.3,7.2-3.4,10L18.5,47z"/>
	</g>
</g>
<g style="display:none;">
	<g style="display:inline;">
		<polyline style="fill:#C06C29;" points="31.9,27.3 18.5,46.7 18.5,26.4 		"/>
		<circle style="fill:#F7941D;" cx="18.5" cy="17.7" r="16.5"/>
		<polyline style="fill:#F7941D;" points="6.1,28.8 18.5,46.7 18.5,26.4 		"/>
		<circle style="fill:#FFFFFF;" cx="18.5" cy="17.8" r="9.1"/>
		<g>
			<circle style="fill:#F7941D;" cx="15" cy="16.8" r="1.3"/>
			<circle style="fill:#F7941D;" cx="21.9" cy="16.8" r="1.3"/>
			<path style="fill:#F7941D;" d="M21.9,19.4c0,1.9-1.5,3.4-3.4,3.4c-1.9,0-3.4-1.5-3.4-3.4"/>
		</g>
		<ellipse cx="18.5" cy="53" rx="12.3" ry="1.8"/>
	</g>
	<g style="display:inline;">
		<path style="fill:none;stroke:#FFFFFF;stroke-width:3;stroke-miterlimit:10;" d="M18.5,47L18.5,47L4.7,27.1C3,24.5,2,21.4,2,18.1
			C2,9,9.4,1.6,18.5,1.6C27.6,1.6,35,9,35,18.1c0,3.7-1.3,7.2-3.4,10L18.5,47z"/>
	</g>
</g>
<g style="display:none;">
	<g style="display:inline;">
		<polyline style="fill:#116EAB;" points="31.9,27.3 18.5,46.7 18.5,26.4 		"/>
		<circle style="fill:#579FD7;" cx="18.5" cy="17.7" r="16.5"/>
		<polyline style="fill:#579FD7;" points="6.1,28.8 18.5,46.7 18.5,26.4 		"/>
		<circle style="fill:#FFFFFF;" cx="18.5" cy="17.8" r="9.1"/>
		<g>
			<circle style="fill:#579FD7;" cx="15" cy="16.8" r="1.3"/>
			<circle style="fill:#579FD7;" cx="21.9" cy="16.8" r="1.3"/>
			<path style="fill:#579FD7;" d="M21.9,19.4c0,1.9-1.5,3.4-3.4,3.4c-1.9,0-3.4-1.5-3.4-3.4"/>
		</g>
		<ellipse cx="18.5" cy="53" rx="12.3" ry="1.8"/>
	</g>
	<g style="display:inline;">
		<path style="fill:none;stroke:#FFFFFF;stroke-width:3;stroke-miterlimit:10;" d="M18.5,47L18.5,47L4.7,27.1C3,24.5,2,21.4,2,18.1
			C2,9,9.4,1.6,18.5,1.6C27.6,1.6,35,9,35,18.1c0,3.7-1.3,7.2-3.4,10L18.5,47z"/>
	</g>
</g>
<g style="display:none;">
	<g style="display:inline;">
		<polyline style="fill:#458967;" points="31.9,27.3 18.5,46.7 18.5,26.4 		"/>
		<circle style="fill:#82CBA9;" cx="18.5" cy="17.7" r="16.5"/>
		<polyline style="fill:#82CBA9;" points="6.1,28.8 18.5,46.7 18.5,26.4 		"/>
		<circle style="fill:#FFFFFF;" cx="18.5" cy="17.8" r="9.1"/>
		<g>
			<circle style="fill:#82CBA9;" cx="15" cy="16.8" r="1.3"/>
			<circle style="fill:#82CBA9;" cx="21.9" cy="16.8" r="1.3"/>
			<path style="fill:#82CBA9;" d="M21.9,19.4c0,1.9-1.5,3.4-3.4,3.4c-1.9,0-3.4-1.5-3.4-3.4"/>
		</g>
		<ellipse cx="18.5" cy="53" rx="12.3" ry="1.8"/>
	</g>
	<g style="display:inline;">
		<path style="fill:none;stroke:#FFFFFF;stroke-width:3;stroke-miterlimit:10;" d="M18.5,47L18.5,47L4.7,27.1C3,24.5,2,21.4,2,18.1
			C2,9,9.4,1.6,18.5,1.6C27.6,1.6,35,9,35,18.1c0,3.7-1.3,7.2-3.4,10L18.5,47z"/>
	</g>
</g>
<g style="display:none;">
	<g style="display:inline;">
		<polyline style="fill:#173F6D;" points="31.9,27.3 18.5,46.7 18.5,26.4 		"/>
		<circle style="fill:#36618E;" cx="18.5" cy="17.7" r="16.5"/>
		<polyline style="fill:#36618E;" points="6.1,28.8 18.5,46.7 18.5,26.4 		"/>
		<circle style="fill:#FFFFFF;" cx="18.5" cy="17.8" r="9.1"/>
		<g>
			<circle style="fill:#36618E;" cx="15" cy="16.8" r="1.3"/>
			<circle style="fill:#36618E;" cx="21.9" cy="16.8" r="1.3"/>
			<path style="fill:#36618E;" d="M21.9,19.4c0,1.9-1.5,3.4-3.4,3.4c-1.9,0-3.4-1.5-3.4-3.4"/>
		</g>
		<ellipse cx="18.5" cy="53" rx="12.3" ry="1.8"/>
	</g>
	<g style="display:inline;">
		<path style="fill:none;stroke:#FFFFFF;stroke-width:3;stroke-miterlimit:10;" d="M18.5,47L18.5,47L4.7,27.1C3,24.5,2,21.4,2,18.1
			C2,9,9.4,1.6,18.5,1.6C27.6,1.6,35,9,35,18.1c0,3.7-1.3,7.2-3.4,10L18.5,47z"/>
	</g>
</g>
<g style="display:none;">
	<g style="display:inline;">
		<polyline style="fill:#871A51;" points="31.9,27.3 18.5,46.7 18.5,26.4 		"/>
		<circle style="fill:#C51B73;" cx="18.5" cy="17.7" r="16.5"/>
		<polyline style="fill:#C51B73;" points="6.1,28.8 18.5,46.7 18.5,26.4 		"/>
		<circle style="fill:#FFFFFF;" cx="18.5" cy="17.8" r="9.1"/>
		<g>
			<circle style="fill:#C51B73;" cx="15" cy="16.8" r="1.3"/>
			<circle style="fill:#C51B73;" cx="21.9" cy="16.8" r="1.3"/>
			<path style="fill:#C51B73;" d="M21.9,19.4c0,1.9-1.5,3.4-3.4,3.4c-1.9,0-3.4-1.5-3.4-3.4"/>
		</g>
		<ellipse cx="18.5" cy="53" rx="12.3" ry="1.8"/>
	</g>
	<g style="display:inline;">
		<path style="fill:none;stroke:#FFFFFF;stroke-width:3;stroke-miterlimit:10;" d="M18.5,47L18.5,47L4.7,27.1C3,24.5,2,21.4,2,18.1
			C2,9,9.4,1.6,18.5,1.6C27.6,1.6,35,9,35,18.1c0,3.7-1.3,7.2-3.4,10L18.5,47z"/>
	</g>
</g>
<g style="display:none;">
	<g style="display:inline;">
		<polyline style="fill:#481449;" points="31.9,27.3 18.5,46.7 18.5,26.4 		"/>
		<circle style="fill:#7A2879;" cx="18.5" cy="17.7" r="16.5"/>
		<polyline style="fill:#7A2879;" points="6.1,28.8 18.5,46.7 18.5,26.4 		"/>
		<circle style="fill:#FFFFFF;" cx="18.5" cy="17.8" r="9.1"/>
		<g>
			<circle style="fill:#7A2879;" cx="15" cy="16.8" r="1.3"/>
			<circle style="fill:#7A2879;" cx="21.9" cy="16.8" r="1.3"/>
			<path style="fill:#7A2879;" d="M21.9,19.4c0,1.9-1.5,3.4-3.4,3.4c-1.9,0-3.4-1.5-3.4-3.4"/>
		</g>
		<ellipse cx="18.5" cy="53" rx="12.3" ry="1.8"/>
	</g>
	<g style="display:inline;">
		<path style="fill:none;stroke:#FFFFFF;stroke-width:3;stroke-miterlimit:10;" d="M18.5,47L18.5,47L4.7,27.1C3,24.5,2,21.4,2,18.1
			C2,9,9.4,1.6,18.5,1.6C27.6,1.6,35,9,35,18.1c0,3.7-1.3,7.2-3.4,10L18.5,47z"/>
	</g>
</g>
</svg>
