<svg enable-background="new 0 0 37 56" viewBox="0 0 37 56" xmlns="http://www.w3.org/2000/svg"><path d="m31.9 27.3-13.4 19.4v-20.3" fill="#481449"/><circle cx="18.5" cy="17.7" fill="#7a2879" r="16.5"/><path d="m6.1 28.8 12.4 17.9v-20.3" fill="#7a2879"/><circle cx="18.5" cy="17.8" fill="#fff" r="9.1"/><g fill="#7a2879"><circle cx="15" cy="16.8" r="1.3"/><circle cx="21.9" cy="16.8" r="1.3"/><path d="m21.9 19.4c0 1.9-1.5 3.4-3.4 3.4s-3.4-1.5-3.4-3.4"/></g><ellipse cx="18.5" cy="53" rx="12.3" ry="1.8"/><path d="m18.5 47-13.8-19.9c-1.7-2.6-2.7-5.7-2.7-9 0-9.1 7.4-16.5 16.5-16.5s16.5 7.4 16.5 16.5c0 3.7-1.3 7.2-3.4 10z" fill="none" stroke="#fff" stroke-miterlimit="10" stroke-width="3"/></svg>