<?xml version="1.0" encoding="utf-8"?>
<!-- Generator: Adobe Illustrator 24.0.1, SVG Export Plug-In . SVG Version: 6.00 Build 0)  -->
<svg version="1.1" id="Layer_1" xmlns="http://www.w3.org/2000/svg" xmlns:xlink="http://www.w3.org/1999/xlink" x="0px" y="0px"
	 viewBox="0 0 37 57" style="enable-background:new 0 0 37 57;" xml:space="preserve">
<style type="text/css">
	.redpin0{fill:#9E1D20;}
	.redpin1{fill:#EC1E24;}
	.redpin2{fill:#FFFFFF;}
	.redpin3{fill:none;stroke:#FFFFFF;stroke-width:2;stroke-miterlimit:10;}
</style>
<g>
	<g>
		<polyline class="redpin0" points="31.7,27.5 18.3,46.9 18.3,26.6 		"/>
		<circle class="redpin1" cx="18.3" cy="18" r="16.5"/>
		<polyline class="redpin1" points="4.8,27.5 18.2,46.9 18.2,26.6 		"/>
		<circle class="redpin2" cx="18.3" cy="18.1" r="9.1"/>
		<g>
			<circle class="redpin1" cx="14.8" cy="17.2" r="1.3"/>
			<circle class="redpin1" cx="21.6" cy="17.2" r="1.3"/>
			<path class="redpin1" d="M21.6,19.7c0,1.9-1.5,3.4-3.4,3.4s-3.4-1.5-3.4-3.4"/>
		</g>
		<ellipse class="redpin0" cx="18.3" cy="53.2" rx="12.3" ry="1.8"/>
	</g>
	<g>
		<path class="redpin3" d="M18.2,1.8C9.1,1.8,1.7,9.2,1.7,18.3c0,3.6,1.1,6.9,3.1,9.6l0,0l13.4,19.4h0.1L31,28.7
			c2.3-2.8,3.7-6.4,3.7-10.4C34.7,9.2,27.3,1.8,18.2,1.8z"/>
	</g>
</g>
</svg>
